#tb 0: 1/7
#media_type 0: video
#codec_id 0: rawvideo
#dimensions 0: 320x240
#sar 0: 1/1
0,          0,          0,        1,   230400, 0x8246c007
0,          1,          1,        1,   230400, 0xd2d501cf
0,          2,          2,        1,   230400, 0xdf1f26c3
0,          3,          3,        1,   230400, 0x382310b6
0,          4,          4,        1,   230400, 0x8f91d242
0,          5,          5,        1,   230400, 0x5dbb2f6f
0,          6,          6,        1,   230400, 0x604503bb
0,          7,          7,        1,   230400, 0x6df5e4e5
0,          8,          8,        1,   230400, 0x659de4a1
0,          9,          9,        1,   230400, 0x987b0539
0,         10,         10,        1,   230400, 0xaaab2384
0,         11,         11,        1,   230400, 0x5810efe0
0,         12,         12,        1,   230400, 0x6199fb72
0,         13,         13,        1,   230400, 0x66d6b1d1
0,         14,         14,        1,   230400, 0x9fc4ab0d
0,         15,         15,        1,   230400, 0x5acfd8e5
0,         16,         16,        1,   230400, 0x7eacc4ea
0,         17,         17,        1,   230400, 0xd000d086
0,         18,         18,        1,   230400, 0x80ec7b3c
0,         19,         19,        1,   230400, 0x9e33b7fb
0,         20,         20,        1,   230400, 0x31ad6518
0,         21,         21,        1,   230400, 0x652a5d45
0,         22,         22,        1,   230400, 0xce5bc872
0,         23,         23,        1,   230400, 0xade7e144
0,         24,         24,        1,   230400, 0x537e2a7d
0,         25,         25,        1,   230400, 0x0e759a3a
0,         26,         26,        1,   230400, 0xcd93e921
0,         27,         27,        1,   230400, 0x2153f6a3
0,         28,         28,        1,   230400, 0xc1bb504c
0,         29,         29,        1,   230400, 0xfb7ea59e
0,         30,         30,        1,   230400, 0x1400a4b2
0,         31,         31,        1,   230400, 0x04494972
0,         32,         32,        1,   230400, 0x10397662
0,         33,         33,        1,   230400, 0x748f9891
0,         34,         34,        1,   230400, 0xb84c52fa
0,         35,         35,        1,   230400, 0x9cebe9f2
0,         36,         36,        1,   230400, 0x40a4620f
0,         37,         37,        1,   230400, 0x03194269
0,         38,         38,        1,   230400, 0x9ad8ad4f
0,         39,         39,        1,   230400, 0x3b9d2447
0,         40,         40,        1,   230400, 0x989df99d
0,         41,         41,        1,   230400, 0x83e0993e
0,         42,         42,        1,   230400, 0xf8fc3fd9
0,         43,         43,        1,   230400, 0x4203fbc1
0,         44,         44,        1,   230400, 0x22c3b599
0,         45,         45,        1,   230400, 0x1be8926e
0,         46,         46,        1,   230400, 0xdc2fa7e1
0,         47,         47,        1,   230400, 0x0dca1f48
0,         48,         48,        1,   230400, 0x1b850c96
0,         49,         49,        1,   230400, 0x08efdcac
0,         50,         50,        1,   230400, 0xaf3c6970
0,         51,         51,        1,   230400, 0xe06e609b
0,         52,         52,        1,   230400, 0xb2b52bce
0,         53,         53,        1,   230400, 0xbbf53c13
0,         54,         54,        1,   230400, 0x434d38e1
0,         55,         55,        1,   230400, 0x64582812
0,         56,         56,        1,   230400, 0xe40adfec
0,         57,         57,        1,   230400, 0xb3144fb2
0,         58,         58,        1,   230400, 0x0ea4f04d
0,         59,         59,        1,   230400, 0x982249e9
0,         60,         60,        1,   230400, 0x3c36d921
0,         61,         61,        1,   230400, 0xe75a96ad
0,         62,         62,        1,   230400, 0xb7055e41
0,         63,         63,        1,   230400, 0x90d0b0f3
0,         64,         64,        1,   230400, 0xa0ae280c
0,         65,         65,        1,   230400, 0x67bf38f7
0,         66,         66,        1,   230400, 0x211d8b11
0,         67,         67,        1,   230400, 0x0463d344
0,         68,         68,        1,   230400, 0xa3306bec
0,         69,         69,        1,   230400, 0x784833cc
